STARTFONT 2.1
FONT -Adobe-Times-Bold-I-Normal--12-120-75-75-P-68-ISO8859-2
SIZE 12 75 75
FONTBOUNDINGBOX 17 15 -2 -3
COMMENT $XConsortium: timBI12.bdf,v 1.14 95/01/26 18:06:17 gildea Exp $
COMMENT 
COMMENT +
COMMENT  Copyright 1984-1989, 1994 Adobe Systems Incorporated.
COMMENT  Copyright 1988, 1994 Digital Equipment Corporation.
COMMENT
COMMENT  Adobe is a trademark of Adobe Systems Incorporated which may be
COMMENT  registered in certain jurisdictions.
COMMENT  Permission to use these trademarks is hereby granted only in
COMMENT  association with the images described in this file.
COMMENT
COMMENT  Permission to use, copy, modify, distribute and sell this software
COMMENT  and its documentation for any purpose and without fee is hereby
COMMENT  granted, provided that the above copyright notices appear in all
COMMENT  copies and that both those copyright notices and this permission
COMMENT  notice appear in supporting documentation, and that the names of
COMMENT  Adobe Systems and Digital Equipment Corporation not be used in
COMMENT  advertising or publicity pertaining to distribution of the software
COMMENT  without specific, written prior permission.  Adobe Systems and
COMMENT  Digital Equipment Corporation make no representations about the
COMMENT  suitability of this software for any purpose.  It is provided "as
COMMENT  is" without express or implied warranty.
COMMENT -
COMMENT  
COMMENT  Translation to ISO8859-2 by Cub Soft;  Petr.Kolar@vslib.cz
COMMENT  
STARTPROPERTIES 28
FOUNDRY "Adobe"
FAMILY_NAME "Times"
WEIGHT_NAME "Bold"
SLANT "I"
SETWIDTH_NAME "Normal"
ADD_STYLE_NAME ""
PIXEL_SIZE 12
POINT_SIZE 120
RESOLUTION_X 75
RESOLUTION_Y 75
SPACING "P"
AVERAGE_WIDTH 68
CHARSET_REGISTRY "ISO8859"
CHARSET_ENCODING "2"
CAP_HEIGHT 9
X_HEIGHT 6
FONT_ASCENT 11
FONT_DESCENT 3
FACE_NAME "Times Bold Italic"

STARTCHAR space
ENCODING 32
SWIDTH 250 0
DWIDTH 3 0
BBX 1 1 0 0
BITMAP
00
ENDCHAR
STARTCHAR exclam
ENCODING 33
SWIDTH 389 0
DWIDTH 5 0
BBX 4 9 1 0
BITMAP
30
30
30
60
60
40
00
c0
c0
ENDCHAR
STARTCHAR quotedbl
ENCODING 34
SWIDTH 555 0
DWIDTH 7 0
BBX 5 3 3 6
BITMAP
d8
d8
90
ENDCHAR
STARTCHAR numbersign
ENCODING 35
SWIDTH 500 0
DWIDTH 7 0
BBX 7 9 0 0
BITMAP
14
14
7e
28
28
28
fc
50
50
ENDCHAR
STARTCHAR dollar
ENCODING 36
SWIDTH 500 0
DWIDTH 6 0
BBX 7 11 0 -1
BITMAP
04
1c
2a
68
70
38
1c
2c
a8
70
40
ENDCHAR
STARTCHAR percent
ENCODING 37
SWIDTH 833 0
DWIDTH 12 0
BBX 11 9 1 0
BITMAP
3100
6f00
ca00
d400
e4c0
09a0
0b20
1340
1380
ENDCHAR
STARTCHAR ampersand
ENCODING 38
SWIDTH 778 0
DWIDTH 9 0
BBX 9 9 0 0
BITMAP
0c00
1a00
1a00
1c00
7b80
ed00
ce00
e680
7b00
ENDCHAR
STARTCHAR apostrophe
ENCODING 39
SWIDTH 333 0
DWIDTH 4 0
BBX 3 3 2 6
BITMAP
60
60
c0
ENDCHAR
STARTCHAR parenleft
ENCODING 40
SWIDTH 333 0
DWIDTH 6 0
BBX 5 11 1 -2
BITMAP
08
30
60
60
c0
c0
c0
c0
40
60
20
ENDCHAR
STARTCHAR parenright
ENCODING 41
SWIDTH 333 0
DWIDTH 6 0
BBX 5 11 0 -2
BITMAP
20
30
10
18
18
18
18
30
30
60
80
ENDCHAR
STARTCHAR asterisk
ENCODING 42
SWIDTH 500 0
DWIDTH 6 0
BBX 5 5 1 4
BITMAP
20
f8
70
f8
20
ENDCHAR
STARTCHAR plus
ENCODING 43
SWIDTH 570 0
DWIDTH 7 0
BBX 5 5 1 1
BITMAP
20
20
f8
20
20
ENDCHAR
STARTCHAR comma
ENCODING 44
SWIDTH 250 0
DWIDTH 4 0
BBX 3 3 0 -1
BITMAP
60
60
c0
ENDCHAR
STARTCHAR minus
ENCODING 45
SWIDTH 606 0
DWIDTH 8 0
BBX 6 1 1 3
BITMAP
fc
ENDCHAR
STARTCHAR period
ENCODING 46
SWIDTH 250 0
DWIDTH 4 0
BBX 2 2 1 0
BITMAP
c0
c0
ENDCHAR
STARTCHAR slash
ENCODING 47
SWIDTH 278 0
DWIDTH 5 0
BBX 4 9 1 0
BITMAP
10
10
30
20
60
40
c0
80
80
ENDCHAR
STARTCHAR zero
ENCODING 48
SWIDTH 500 0
DWIDTH 6 0
BBX 7 9 0 0
BITMAP
1c
64
66
c6
c6
cc
cc
d8
70
ENDCHAR
STARTCHAR one
ENCODING 49
SWIDTH 500 0
DWIDTH 6 0
BBX 6 9 0 0
BITMAP
0c
3c
18
38
30
30
60
60
f0
ENDCHAR
STARTCHAR two
ENCODING 50
SWIDTH 500 0
DWIDTH 6 0
BBX 6 9 0 0
BITMAP
38
7c
4c
0c
18
30
40
f8
f0
ENDCHAR
STARTCHAR three
ENCODING 51
SWIDTH 500 0
DWIDTH 6 0
BBX 7 9 -1 0
BITMAP
1c
36
06
0e
18
0c
cc
cc
78
ENDCHAR
STARTCHAR four
ENCODING 52
SWIDTH 500 0
DWIDTH 6 0
BBX 6 9 0 0
BITMAP
04
0c
1c
28
48
fc
f8
10
30
ENDCHAR
STARTCHAR five
ENCODING 53
SWIDTH 500 0
DWIDTH 6 0
BBX 7 9 0 0
BITMAP
1e
3c
20
78
0c
0c
cc
d8
70
ENDCHAR
STARTCHAR six
ENCODING 54
SWIDTH 500 0
DWIDTH 6 0
BBX 7 9 0 0
BITMAP
0e
38
60
78
cc
cc
cc
d8
70
ENDCHAR
STARTCHAR seven
ENCODING 55
SWIDTH 500 0
DWIDTH 6 0
BBX 7 9 1 0
BITMAP
fe
fc
88
10
30
20
60
40
c0
ENDCHAR
STARTCHAR eight
ENCODING 56
SWIDTH 500 0
DWIDTH 6 0
BBX 6 9 0 0
BITMAP
3c
64
6c
38
78
dc
8c
d8
70
ENDCHAR
STARTCHAR nine
ENCODING 57
SWIDTH 500 0
DWIDTH 6 0
BBX 7 9 0 0
BITMAP
1c
36
66
66
6e
3c
0c
38
e0
ENDCHAR
STARTCHAR colon
ENCODING 58
SWIDTH 333 0
DWIDTH 5 0
BBX 3 6 1 0
BITMAP
60
60
00
00
c0
c0
ENDCHAR
STARTCHAR semicolon
ENCODING 59
SWIDTH 333 0
DWIDTH 5 0
BBX 4 7 0 -1
BITMAP
30
30
00
00
60
60
c0
ENDCHAR
STARTCHAR less
ENCODING 60
SWIDTH 570 0
DWIDTH 9 0
BBX 7 7 1 0
BITMAP
06
1c
70
c0
70
1c
06
ENDCHAR
STARTCHAR equal
ENCODING 61
SWIDTH 570 0
DWIDTH 8 0
BBX 6 3 1 2
BITMAP
fc
00
fc
ENDCHAR
STARTCHAR greater
ENCODING 62
SWIDTH 570 0
DWIDTH 9 0
BBX 7 7 1 0
BITMAP
c0
70
1c
06
1c
70
c0
ENDCHAR
STARTCHAR question
ENCODING 63
SWIDTH 500 0
DWIDTH 6 0
BBX 6 9 1 0
BITMAP
38
6c
0c
38
60
40
00
c0
c0
ENDCHAR
STARTCHAR at
ENCODING 64
SWIDTH 832 0
DWIDTH 12 0
BBX 10 10 1 -1
BITMAP
0f00
3880
6040
4d40
da40
da40
da80
cd00
6000
3e00
ENDCHAR
STARTCHAR A
ENCODING 65
SWIDTH 667 0
DWIDTH 8 0
BBX 8 9 0 0
BITMAP
06
0e
0e
1a
12
3e
66
46
ef
ENDCHAR
STARTCHAR B
ENCODING 66
SWIDTH 667 0
DWIDTH 8 0
BBX 9 9 0 0
BITMAP
3f00
1980
1180
3300
3e00
3300
6300
6600
fc00
ENDCHAR
STARTCHAR C
ENCODING 67
SWIDTH 667 0
DWIDTH 8 0
BBX 8 9 1 0
BITMAP
1f
33
62
60
c0
c0
c2
ec
78
ENDCHAR
STARTCHAR D
ENCODING 68
SWIDTH 722 0
DWIDTH 9 0
BBX 9 9 0 0
BITMAP
3e00
1b00
1980
3180
3180
2180
6300
6600
fc00
ENDCHAR
STARTCHAR E
ENCODING 69
SWIDTH 667 0
DWIDTH 8 0
BBX 9 9 0 0
BITMAP
3f80
1980
1800
3100
3e00
3200
6000
6300
fe00
ENDCHAR
STARTCHAR F
ENCODING 70
SWIDTH 667 0
DWIDTH 8 0
BBX 9 9 0 0
BITMAP
3f80
1980
1800
3200
3e00
3400
6000
6000
f000
ENDCHAR
STARTCHAR G
ENCODING 71
SWIDTH 722 0
DWIDTH 9 0
BBX 8 9 1 0
BITMAP
1f
33
62
60
c0
cf
c6
ec
7c
ENDCHAR
STARTCHAR H
ENCODING 72
SWIDTH 778 0
DWIDTH 10 0
BBX 11 9 0 0
BITMAP
3de0
18c0
18c0
3180
3f80
3180
6300
6300
e780
ENDCHAR
STARTCHAR I
ENCODING 73
SWIDTH 389 0
DWIDTH 5 0
BBX 6 9 0 0
BITMAP
3c
18
18
30
30
30
60
60
f0
ENDCHAR
STARTCHAR J
ENCODING 74
SWIDTH 500 0
DWIDTH 6 0
BBX 8 10 -1 -1
BITMAP
0f
06
0c
0c
0c
18
18
d8
f0
60
ENDCHAR
STARTCHAR K
ENCODING 75
SWIDTH 667 0
DWIDTH 8 0
BBX 10 9 -1 0
BITMAP
3dc0
1980
1300
3600
3c00
3600
6600
6300
f780
ENDCHAR
STARTCHAR L
ENCODING 76
SWIDTH 611 0
DWIDTH 8 0
BBX 8 9 0 0
BITMAP
3c
18
18
30
30
30
60
63
fe
ENDCHAR
STARTCHAR M
ENCODING 77
SWIDTH 889 0
DWIDTH 11 0
BBX 12 9 0 0
BITMAP
3870
18e0
18e0
3940
2ac0
2ec0
6d80
6d80
e9c0
ENDCHAR
STARTCHAR N
ENCODING 78
SWIDTH 722 0
DWIDTH 9 0
BBX 10 9 0 0
BITMAP
39c0
1880
1980
3d00
2d00
2f00
6600
4600
f200
ENDCHAR
STARTCHAR O
ENCODING 79
SWIDTH 722 0
DWIDTH 9 0
BBX 8 9 1 0
BITMAP
1e
33
63
63
c3
c6
c6
cc
78
ENDCHAR
STARTCHAR P
ENCODING 80
SWIDTH 611 0
DWIDTH 8 0
BBX 9 9 0 0
BITMAP
3f00
1980
1980
3380
3f00
3000
6000
6000
f000
ENDCHAR
STARTCHAR Q
ENCODING 81
SWIDTH 722 0
DWIDTH 9 0
BBX 8 12 1 -3
BITMAP
1e
33
63
63
c3
c6
c6
cc
78
20
76
dc
ENDCHAR
STARTCHAR R
ENCODING 82
SWIDTH 667 0
DWIDTH 8 0
BBX 8 9 0 0
BITMAP
3e
1b
13
33
3e
34
66
66
f7
ENDCHAR
STARTCHAR S
ENCODING 83
SWIDTH 556 0
DWIDTH 8 0
BBX 7 9 1 0
BITMAP
3a
66
62
30
18
0c
8c
cc
f8
ENDCHAR
STARTCHAR T
ENCODING 84
SWIDTH 611 0
DWIDTH 7 0
BBX 8 9 1 0
BITMAP
7f
da
18
30
30
30
60
60
f0
ENDCHAR
STARTCHAR U
ENCODING 85
SWIDTH 722 0
DWIDTH 10 0
BBX 10 9 1 0
BITMAP
7bc0
3180
3100
6300
6300
6200
c600
c400
7800
ENDCHAR
STARTCHAR V
ENCODING 86
SWIDTH 667 0
DWIDTH 8 0
BBX 9 9 1 0
BITMAP
f780
6300
6600
6c00
6800
7800
7000
6000
4000
ENDCHAR
STARTCHAR W
ENCODING 87
SWIDTH 889 0
DWIDTH 11 0
BBX 12 9 1 0
BITMAP
ef70
6660
6640
6ec0
6a80
3a80
3300
3300
2200
ENDCHAR
STARTCHAR X
ENCODING 88
SWIDTH 667 0
DWIDTH 8 0
BBX 10 9 -1 0
BITMAP
7bc0
3180
1b00
0e00
0c00
1e00
3600
6300
f780
ENDCHAR
STARTCHAR Y
ENCODING 89
SWIDTH 611 0
DWIDTH 7 0
BBX 9 9 0 0
BITMAP
7b80
3300
3200
3400
1800
1800
3000
3000
f800
ENDCHAR
STARTCHAR Z
ENCODING 90
SWIDTH 611 0
DWIDTH 7 0
BBX 8 9 0 0
BITMAP
3f
67
06
0c
18
30
60
e2
fe
ENDCHAR
STARTCHAR bracketleft
ENCODING 91
SWIDTH 333 0
DWIDTH 6 0
BBX 7 11 0 -2
BITMAP
1e
18
18
30
30
30
60
60
60
c0
f0
ENDCHAR
STARTCHAR backslash
ENCODING 92
SWIDTH 278 0
DWIDTH 5 0
BBX 4 9 0 0
BITMAP
80
80
c0
40
60
20
30
10
10
ENDCHAR
STARTCHAR bracketright
ENCODING 93
SWIDTH 333 0
DWIDTH 7 0
BBX 7 11 0 -2
BITMAP
1e
06
0c
0c
0c
18
18
18
30
30
f0
ENDCHAR
STARTCHAR asciicircum
ENCODING 94
SWIDTH 570 0
DWIDTH 8 0
BBX 6 5 1 4
BITMAP
10
38
68
cc
84
ENDCHAR
STARTCHAR underscore
ENCODING 95
SWIDTH 500 0
DWIDTH 6 0
BBX 6 1 0 -2
BITMAP
fc
ENDCHAR
STARTCHAR grave
ENCODING 96
SWIDTH 333 0
DWIDTH 4 0
BBX 3 2 2 7
BITMAP
c0
20
ENDCHAR
STARTCHAR a
ENCODING 97
SWIDTH 500 0
DWIDTH 7 0
BBX 7 6 0 0
BITMAP
34
6c
cc
d8
da
6c
ENDCHAR
STARTCHAR b
ENCODING 98
SWIDTH 500 0
DWIDTH 6 0
BBX 6 9 0 0
BITMAP
70
30
20
78
6c
4c
cc
98
f0
ENDCHAR
STARTCHAR c
ENCODING 99
SWIDTH 444 0
DWIDTH 5 0
BBX 5 6 0 0
BITMAP
38
58
c0
c0
d8
70
ENDCHAR
STARTCHAR d
ENCODING 100
SWIDTH 500 0
DWIDTH 6 0
BBX 7 9 0 0
BITMAP
0e
06
0c
3c
6c
c8
d8
d8
6c
ENDCHAR
STARTCHAR e
ENCODING 101
SWIDTH 444 0
DWIDTH 6 0
BBX 6 6 0 0
BITMAP
38
6c
d8
e0
c8
70
ENDCHAR
STARTCHAR f
ENCODING 102
SWIDTH 333 0
DWIDTH 3 0
BBX 7 12 -2 -3
BITMAP
0e
1a
18
3c
10
30
30
30
30
20
e0
c0
ENDCHAR
STARTCHAR g
ENCODING 103
SWIDTH 500 0
DWIDTH 5 0
BBX 7 9 -1 -3
BITMAP
3e
6c
6c
38
30
78
9c
cc
78
ENDCHAR
STARTCHAR h
ENCODING 104
SWIDTH 556 0
DWIDTH 6 0
BBX 6 9 0 0
BITMAP
70
30
20
78
6c
6c
c8
d8
dc
ENDCHAR
STARTCHAR i
ENCODING 105
SWIDTH 278 0
DWIDTH 4 0
BBX 4 9 0 0
BITMAP
30
30
00
60
60
60
c0
c0
e0
ENDCHAR
STARTCHAR j
ENCODING 106
SWIDTH 278 0
DWIDTH 4 0
BBX 7 12 -2 -3
BITMAP
06
06
00
1c
0c
18
18
18
30
30
b0
60
ENDCHAR
STARTCHAR k
ENCODING 107
SWIDTH 500 0
DWIDTH 6 0
BBX 7 9 0 0
BITMAP
38
18
10
36
3c
78
68
68
cc
ENDCHAR
STARTCHAR l
ENCODING 108
SWIDTH 278 0
DWIDTH 4 0
BBX 4 9 0 0
BITMAP
70
30
20
60
60
40
c0
d0
60
ENDCHAR
STARTCHAR m
ENCODING 109
SWIDTH 778 0
DWIDTH 9 0
BBX 10 6 0 0
BITMAP
db00
6d80
6d80
c900
db40
db80
ENDCHAR
STARTCHAR n
ENCODING 110
SWIDTH 556 0
DWIDTH 6 0
BBX 6 6 0 0
BITMAP
d8
6c
6c
c8
d8
dc
ENDCHAR
STARTCHAR o
ENCODING 111
SWIDTH 500 0
DWIDTH 6 0
BBX 6 6 0 0
BITMAP
38
6c
cc
cc
d8
70
ENDCHAR
STARTCHAR p
ENCODING 112
SWIDTH 500 0
DWIDTH 6 0
BBX 8 9 -2 -3
BITMAP
3e
1b
1b
33
36
3c
60
60
f0
ENDCHAR
STARTCHAR q
ENCODING 113
SWIDTH 500 0
DWIDTH 6 0
BBX 6 9 0 -3
BITMAP
34
6c
cc
c8
d8
78
10
30
78
ENDCHAR
STARTCHAR r
ENCODING 114
SWIDTH 389 0
DWIDTH 5 0
BBX 5 6 0 0
BITMAP
d8
68
60
c0
c0
c0
ENDCHAR
STARTCHAR s
ENCODING 115
SWIDTH 389 0
DWIDTH 5 0
BBX 5 6 0 0
BITMAP
78
c8
60
38
98
f0
ENDCHAR
STARTCHAR t
ENCODING 116
SWIDTH 278 0
DWIDTH 3 0
BBX 4 7 0 0
BITMAP
20
f0
60
40
c0
d0
60
ENDCHAR
STARTCHAR u
ENCODING 117
SWIDTH 556 0
DWIDTH 7 0
BBX 7 6 0 0
BITMAP
e6
6c
6c
cc
d8
6c
ENDCHAR
STARTCHAR v
ENCODING 118
SWIDTH 444 0
DWIDTH 6 0
BBX 6 6 0 0
BITMAP
ec
64
6c
68
50
60
ENDCHAR
STARTCHAR w
ENCODING 119
SWIDTH 667 0
DWIDTH 8 0
BBX 9 6 0 0
BITMAP
ed80
6d00
6d00
7e00
6c00
4800
ENDCHAR
STARTCHAR x
ENCODING 120
SWIDTH 500 0
DWIDTH 6 0
BBX 6 6 0 0
BITMAP
6c
38
30
38
58
dc
ENDCHAR
STARTCHAR y
ENCODING 121
SWIDTH 444 0
DWIDTH 6 0
BBX 7 9 -1 -3
BITMAP
76
32
34
34
1c
18
10
d0
e0
ENDCHAR
STARTCHAR z
ENCODING 122
SWIDTH 389 0
DWIDTH 6 0
BBX 6 7 0 -1
BITMAP
7c
d8
30
60
c0
e8
30
ENDCHAR
STARTCHAR braceleft
ENCODING 123
SWIDTH 348 0
DWIDTH 6 0
BBX 6 11 1 -2
BITMAP
1c
30
30
30
60
c0
60
60
c0
c0
70
ENDCHAR
STARTCHAR bar
ENCODING 124
SWIDTH 220 0
DWIDTH 4 0
BBX 1 9 2 0
BITMAP
80
80
80
80
80
80
80
80
80
ENDCHAR
STARTCHAR braceright
ENCODING 125
SWIDTH 348 0
DWIDTH 6 0
BBX 6 11 0 -2
BITMAP
38
0c
0c
18
18
0c
18
30
30
30
e0
ENDCHAR
STARTCHAR asciitilde
ENCODING 126
SWIDTH 570 0
DWIDTH 9 0
BBX 7 2 1 3
BITMAP
72
9c
ENDCHAR
STARTCHAR nobreakspace
ENCODING 160
SWIDTH 250 0
DWIDTH 3 0
BBX 1 1 0 0
BITMAP
00
ENDCHAR
STARTCHAR Aogonek
ENCODING 161
SWIDTH 667 0
DWIDTH 8 0
BBX 8 12 0 -3
BITMAP
06
0e
0e
1a
12
3e
66
46
ef
20
2c
18
ENDCHAR
STARTCHAR breve
ENCODING 162
SWIDTH 333 0
DWIDTH 5 0
BBX 4 3 2 7
BITMAP
90
90
60
ENDCHAR
STARTCHAR Lstroke
ENCODING 163
SWIDTH 611 0
DWIDTH 8 0
BBX 8 9 0 0
BITMAP
3c
18
14
38
70
b0
60
63
fe
ENDCHAR
STARTCHAR currency
ENCODING 164
SWIDTH 500 0
DWIDTH 8 0
BBX 6 6 1 1
BITMAP
84
78
48
48
78
84
ENDCHAR
STARTCHAR Lcaron
ENCODING 165
SWIDTH 800 0
DWIDTH 10 0
BBX 10 10 0 0
BITMAP
00c0
3cc0
1980
1800
3000
3000
3000
6000
6300
fe00
ENDCHAR
STARTCHAR Sacute
ENCODING 166
SWIDTH 556 0
DWIDTH 8 0
BBX 7 12 1 0
BITMAP
0c
10
00
3a
66
62
30
18
0c
8c
cc
f8
ENDCHAR
STARTCHAR section
ENCODING 167
SWIDTH 500 0
DWIDTH 7 0
BBX 7 12 0 -3
BITMAP
0e
16
10
38
5c
4c
64
78
38
10
d0
e0
ENDCHAR
STARTCHAR diaeresis
ENCODING 168
SWIDTH 333 0
DWIDTH 5 0
BBX 3 2 2 7
BITMAP
a0
a0
ENDCHAR
STARTCHAR Scaron
ENCODING 169
SWIDTH 556 0
DWIDTH 8 0
BBX 7 12 1 0
BITMAP
34
18
00
3a
66
62
30
18
0c
8c
cc
f8
ENDCHAR
STARTCHAR Scedilla
ENCODING 170
SWIDTH 556 0
DWIDTH 8 0
BBX 7 12 1 -3
BITMAP
3a
66
62
30
18
0c
8c
cc
f8
08
2c
18
ENDCHAR
STARTCHAR Tcaron
ENCODING 171
SWIDTH 611 0
DWIDTH 7 0
BBX 8 12 1 0
BITMAP
34
18
00
7f
da
18
30
30
30
60
60
f0
ENDCHAR
STARTCHAR Zacute
ENCODING 172
SWIDTH 611 0
DWIDTH 7 0
BBX 8 12 0 0
BITMAP
06
08
00
3f
67
06
0c
18
30
60
e2
fe
ENDCHAR
STARTCHAR hyphen
ENCODING 173
SWIDTH 333 0
DWIDTH 4 0
BBX 3 2 1 2
BITMAP
e0
e0
ENDCHAR
STARTCHAR Zcaron
ENCODING 174
SWIDTH 611 0
DWIDTH 7 0
BBX 8 12 0 0
BITMAP
1a
0c
00
3f
67
06
0c
18
30
60
e2
fe
ENDCHAR
STARTCHAR Zabovedot
ENCODING 175
SWIDTH 611 0
DWIDTH 7 0
BBX 8 12 0 0
BITMAP
08
08
00
3f
67
06
0c
18
30
60
e2
fe
ENDCHAR
STARTCHAR degree
ENCODING 176
SWIDTH 400 0
DWIDTH 5 0
BBX 4 4 1 5
BITMAP
60
90
90
60
ENDCHAR
STARTCHAR aogonek
ENCODING 177
SWIDTH 500 0
DWIDTH 7 0
BBX 7 9 0 -3
BITMAP
34
6c
cc
d8
da
6c
20
2c
18
ENDCHAR
STARTCHAR ogonek
ENCODING 178
SWIDTH 333 0
DWIDTH 4 0
BBX 4 3 1 -3
BITMAP
80
b0
60
ENDCHAR
STARTCHAR lstroke
ENCODING 179
SWIDTH 278 0
DWIDTH 4 0
BBX 4 9 0 0
BITMAP
70
30
20
70
e0
40
c0
d0
60
ENDCHAR
STARTCHAR acute
ENCODING 180
SWIDTH 333 0
DWIDTH 4 0
BBX 3 2 2 7
BITMAP
60
80
ENDCHAR
STARTCHAR lcaron
ENCODING 181
SWIDTH 640 0
DWIDTH 8 0
BBX 8 10 0 0
BITMAP
03
73
36
20
60
60
40
c0
d0
60
ENDCHAR
STARTCHAR sacute
ENCODING 182
SWIDTH 389 0
DWIDTH 5 0
BBX 5 9 0 0
BITMAP
18
20
00
78
c8
60
38
98
f0
ENDCHAR
STARTCHAR caron
ENCODING 183
SWIDTH 333 0
DWIDTH 5 0
BBX 4 2 2 7
BITMAP
d0
60
ENDCHAR
STARTCHAR cedilla
ENCODING 184
SWIDTH 333 0
DWIDTH 4 0
BBX 4 3 -1 -3
BITMAP
20
b0
60
ENDCHAR
STARTCHAR scaron
ENCODING 185
SWIDTH 389 0
DWIDTH 5 0
BBX 5 9 0 0
BITMAP
68
30
00
78
c8
60
38
98
f0
ENDCHAR
STARTCHAR scedilla
ENCODING 186
SWIDTH 389 0
DWIDTH 5 0
BBX 5 9 0 -3
BITMAP
78
c8
60
38
98
f0
10
58
30
ENDCHAR
STARTCHAR tcaron
ENCODING 187
SWIDTH 278 0
DWIDTH 3 0
BBX 4 10 0 0
BITMAP
30
30
60
20
f0
60
40
c0
d0
60
ENDCHAR
STARTCHAR zacute
ENCODING 188
SWIDTH 389 0
DWIDTH 6 0
BBX 6 10 0 -1
BITMAP
18
20
00
7c
d8
30
60
c0
e8
30
ENDCHAR
STARTCHAR doubleacute
ENCODING 189
SWIDTH 333 0
DWIDTH 4 0
BBX 3 2 2 7
BITMAP
a0
a0
ENDCHAR
STARTCHAR zcaron
ENCODING 190
SWIDTH 389 0
DWIDTH 6 0
BBX 6 10 0 -1
BITMAP
68
30
00
7c
d8
30
60
c0
e8
30
ENDCHAR
STARTCHAR zabovedot
ENCODING 191
SWIDTH 389 0
DWIDTH 6 0
BBX 6 10 0 -1
BITMAP
20
20
00
7c
d8
30
60
c0
e8
30
ENDCHAR
STARTCHAR Racute
ENCODING 192
SWIDTH 667 0
DWIDTH 8 0
BBX 8 12 0 0
BITMAP
06
08
00
3e
1b
13
33
3e
34
66
66
f7
ENDCHAR
STARTCHAR Aacute
ENCODING 193
SWIDTH 667 0
DWIDTH 8 0
BBX 9 12 0 0
BITMAP
0180
0200
0000
0600
0e00
0e00
1a00
1200
3e00
6600
4600
ef00
ENDCHAR
STARTCHAR Acircumflex
ENCODING 194
SWIDTH 667 0
DWIDTH 8 0
BBX 8 12 0 0
BITMAP
06
0d
00
06
0e
0e
1a
12
3e
66
46
ef
ENDCHAR
STARTCHAR Abreve
ENCODING 195
SWIDTH 667 0
DWIDTH 8 0
BBX 8 13 0 0
BITMAP
09
09
06
00
06
0e
0e
1a
12
3e
66
46
ef
ENDCHAR
STARTCHAR Adiaeresis
ENCODING 196
SWIDTH 667 0
DWIDTH 8 0
BBX 8 12 0 0
BITMAP
09
09
00
06
0e
0e
1a
12
3e
66
46
ef
ENDCHAR
STARTCHAR Lacute
ENCODING 197
SWIDTH 611 0
DWIDTH 8 0
BBX 8 12 0 0
BITMAP
0c
10
00
3c
18
18
30
30
30
60
63
fe
ENDCHAR
STARTCHAR Cacute
ENCODING 198
SWIDTH 667 0
DWIDTH 8 0
BBX 8 12 1 0
BITMAP
06
08
00
1f
33
62
60
c0
c0
c2
ec
78
ENDCHAR
STARTCHAR Ccedilla
ENCODING 199
SWIDTH 667 0
DWIDTH 8 0
BBX 8 12 1 -3
BITMAP
1f
33
62
60
c0
c0
c2
ec
78
10
58
30
ENDCHAR
STARTCHAR Ccaron
ENCODING 200
SWIDTH 667 0
DWIDTH 8 0
BBX 8 12 1 0
BITMAP
1a
0c
00
1f
33
62
60
c0
c0
c2
ec
78
ENDCHAR
STARTCHAR Eacute
ENCODING 201
SWIDTH 667 0
DWIDTH 8 0
BBX 9 12 0 0
BITMAP
0180
0200
0000
3f80
1980
1800
3100
3e00
3200
6000
6300
fe00
ENDCHAR
STARTCHAR Eogonek
ENCODING 202
SWIDTH 667 0
DWIDTH 8 0
BBX 9 12 0 -3
BITMAP
3f80
1980
1800
3100
3e00
3200
6000
6300
fe00
1000
1600
0c00
ENDCHAR
STARTCHAR Ediaeresis
ENCODING 203
SWIDTH 667 0
DWIDTH 8 0
BBX 9 12 0 0
BITMAP
0900
0900
0000
3f80
1980
1800
3100
3e00
3200
6000
6300
fe00
ENDCHAR
STARTCHAR Ecaron
ENCODING 204
SWIDTH 667 0
DWIDTH 8 0
BBX 9 12 0 0
BITMAP
0d00
0600
0000
3f80
1980
1800
3100
3e00
3200
6000
6300
fe00
ENDCHAR
STARTCHAR Iacute
ENCODING 205
SWIDTH 389 0
DWIDTH 5 0
BBX 7 12 0 0
BITMAP
06
08
00
3c
18
18
30
30
30
60
60
f0
ENDCHAR
STARTCHAR Icircumflex
ENCODING 206
SWIDTH 389 0
DWIDTH 5 0
BBX 6 12 0 0
BITMAP
18
34
00
3c
18
18
30
30
30
60
60
f0
ENDCHAR
STARTCHAR Dcaron
ENCODING 207
SWIDTH 722 0
DWIDTH 9 0
BBX 9 12 0 0
BITMAP
1a00
0c00
0000
3e00
1b00
1980
3180
3180
2180
6300
6600
fc00
ENDCHAR
STARTCHAR Dstroke
ENCODING 208
SWIDTH 722 0
DWIDTH 9 0
BBX 9 9 0 0
BITMAP
3e00
1b00
1980
3180
7980
2180
6300
6600
fc00
ENDCHAR
STARTCHAR Nacute
ENCODING 209
SWIDTH 722 0
DWIDTH 9 0
BBX 10 12 0 0
BITMAP
0300
0400
0000
39c0
1880
1980
3d00
2d00
2f00
6600
4600
f200
ENDCHAR
STARTCHAR Ncaron
ENCODING 210
SWIDTH 722 0
DWIDTH 9 0
BBX 10 12 0 0
BITMAP
0d00
0600
0000
39c0
1880
1980
3d00
2d00
2f00
6600
4600
f200
ENDCHAR
STARTCHAR Oacute
ENCODING 211
SWIDTH 722 0
DWIDTH 9 0
BBX 8 12 1 0
BITMAP
03
04
00
1e
33
63
63
c3
c6
c6
cc
78
ENDCHAR
STARTCHAR Ocircumflex
ENCODING 212
SWIDTH 722 0
DWIDTH 9 0
BBX 8 12 1 0
BITMAP
0c
1a
00
1e
33
63
63
c3
c6
c6
cc
78
ENDCHAR
STARTCHAR Odoubleacute
ENCODING 213
SWIDTH 722 0
DWIDTH 9 0
BBX 8 12 1 0
BITMAP
14
14
00
1e
33
63
63
c3
c6
c6
cc
78
ENDCHAR
STARTCHAR Odiaeresis
ENCODING 214
SWIDTH 722 0
DWIDTH 9 0
BBX 8 12 1 0
BITMAP
12
12
00
1e
33
63
63
c3
c6
c6
cc
78
ENDCHAR
STARTCHAR multiply
ENCODING 215
SWIDTH 570 0
DWIDTH 7 0
BBX 5 5 1 1
BITMAP
88
70
20
70
88
ENDCHAR
STARTCHAR Rcaron
ENCODING 216
SWIDTH 667 0
DWIDTH 8 0
BBX 8 12 0 0
BITMAP
1a
0c
00
3e
1b
13
33
3e
34
66
66
f7
ENDCHAR
STARTCHAR Uring
ENCODING 217
SWIDTH 722 0
DWIDTH 10 0
BBX 10 13 1 0
BITMAP
0600
0900
0600
0000
7bc0
3180
3100
6300
6300
6200
c600
c400
7800
ENDCHAR
STARTCHAR Uacute
ENCODING 218
SWIDTH 722 0
DWIDTH 10 0
BBX 10 12 1 0
BITMAP
0300
0400
0000
7bc0
3180
3100
6300
6300
6200
c600
c400
7800
ENDCHAR
STARTCHAR Udoubleacute
ENCODING 219
SWIDTH 722 0
DWIDTH 10 0
BBX 10 12 1 0
BITMAP
0a00
0a00
0000
7bc0
3180
3100
6300
6300
6200
c600
c400
7800
ENDCHAR
STARTCHAR Udiaeresis
ENCODING 220
SWIDTH 722 0
DWIDTH 10 0
BBX 10 12 1 0
BITMAP
0900
0900
0000
7bc0
3180
3100
6300
6300
6200
c600
c400
7800
ENDCHAR
STARTCHAR Yacute
ENCODING 221
SWIDTH 611 0
DWIDTH 7 0
BBX 9 12 0 0
BITMAP
0300
0400
0000
7b80
3300
3200
3400
1800
1800
3000
3000
f800
ENDCHAR
STARTCHAR Tcedilla
ENCODING 222
SWIDTH 611 0
DWIDTH 7 0
BBX 8 12 1 -3
BITMAP
7f
da
18
30
30
30
60
60
f0
08
2c
18
ENDCHAR
STARTCHAR ssharp
ENCODING 223
SWIDTH 500 0
DWIDTH 7 0
BBX 9 12 -2 -3
BITMAP
0700
0d80
0d80
0b00
1b00
1900
1900
1b00
1600
3000
b000
6000
ENDCHAR
STARTCHAR racute
ENCODING 224
SWIDTH 389 0
DWIDTH 5 0
BBX 5 9 0 0
BITMAP
18
20
00
d8
68
60
c0
c0
c0
ENDCHAR
STARTCHAR aacute
ENCODING 225
SWIDTH 500 0
DWIDTH 7 0
BBX 7 9 0 0
BITMAP
0c
10
00
34
6c
cc
d8
da
6c
ENDCHAR
STARTCHAR acircumflex
ENCODING 226
SWIDTH 500 0
DWIDTH 7 0
BBX 7 9 0 0
BITMAP
18
34
00
34
6c
cc
d8
da
6c
ENDCHAR
STARTCHAR abreve
ENCODING 227
SWIDTH 500 0
DWIDTH 7 0
BBX 7 10 0 0
BITMAP
24
24
18
00
34
6c
cc
d8
da
6c
ENDCHAR
STARTCHAR adiaeresis
ENCODING 228
SWIDTH 500 0
DWIDTH 7 0
BBX 7 9 0 0
BITMAP
28
28
00
34
6c
cc
d8
da
6c
ENDCHAR
STARTCHAR lacute
ENCODING 229
SWIDTH 278 0
DWIDTH 4 0
BBX 5 12 0 0
BITMAP
18
20
00
70
30
20
60
60
40
c0
d0
60
ENDCHAR
STARTCHAR cacute
ENCODING 230
SWIDTH 444 0
DWIDTH 5 0
BBX 5 9 0 0
BITMAP
18
20
00
38
58
c0
c0
d8
70
ENDCHAR
STARTCHAR ccedilla
ENCODING 231
SWIDTH 444 0
DWIDTH 5 0
BBX 5 9 0 -3
BITMAP
38
58
c0
c0
d8
70
20
b0
60
ENDCHAR
STARTCHAR ccaron
ENCODING 232
SWIDTH 444 0
DWIDTH 5 0
BBX 5 9 0 0
BITMAP
68
30
00
38
58
c0
c0
d8
70
ENDCHAR
STARTCHAR eacute
ENCODING 233
SWIDTH 444 0
DWIDTH 6 0
BBX 6 9 0 0
BITMAP
0c
10
00
38
6c
d8
e0
c8
70
ENDCHAR
STARTCHAR eogonek
ENCODING 234
SWIDTH 444 0
DWIDTH 6 0
BBX 6 9 0 -3
BITMAP
38
6c
d8
e0
c8
70
40
58
30
ENDCHAR
STARTCHAR ediaeresis
ENCODING 235
SWIDTH 444 0
DWIDTH 6 0
BBX 6 9 0 0
BITMAP
28
28
00
38
6c
d8
e0
c8
70
ENDCHAR
STARTCHAR ecaron
ENCODING 236
SWIDTH 444 0
DWIDTH 6 0
BBX 6 9 0 0
BITMAP
34
18
00
38
6c
d8
e0
c8
70
ENDCHAR
STARTCHAR iacute
ENCODING 237
SWIDTH 278 0
DWIDTH 3 0
BBX 4 9 0 0
BITMAP
30
40
00
60
60
60
c0
c0
e0
ENDCHAR
STARTCHAR icircumflex
ENCODING 238
SWIDTH 278 0
DWIDTH 3 0
BBX 4 9 0 0
BITMAP
60
d0
00
60
60
60
c0
c0
e0
ENDCHAR
STARTCHAR dcaron
ENCODING 239
SWIDTH 800 0
DWIDTH 10 0
BBX 11 10 0 0
BITMAP
0060
0e60
06c0
0c00
3c00
6c00
c800
d800
d800
6c00
ENDCHAR
STARTCHAR dstroke
ENCODING 240
SWIDTH 640 0
DWIDTH 8 0
BBX 9 9 0 0
BITMAP
0600
3f80
0c00
3c00
6c00
c800
d800
d800
6c00
ENDCHAR
STARTCHAR nacute
ENCODING 241
SWIDTH 556 0
DWIDTH 6 0
BBX 6 9 0 0
BITMAP
18
20
00
d8
6c
6c
c8
d8
dc
ENDCHAR
STARTCHAR ncaron
ENCODING 242
SWIDTH 556 0
DWIDTH 6 0
BBX 6 9 0 0
BITMAP
68
30
00
d8
6c
6c
c8
d8
dc
ENDCHAR
STARTCHAR oacute
ENCODING 243
SWIDTH 500 0
DWIDTH 6 0
BBX 6 9 0 0
BITMAP
0c
10
00
38
6c
cc
cc
d8
70
ENDCHAR
STARTCHAR ocircumflex
ENCODING 244
SWIDTH 500 0
DWIDTH 6 0
BBX 6 9 0 0
BITMAP
18
34
00
38
6c
cc
cc
d8
70
ENDCHAR
STARTCHAR odoubleacute
ENCODING 245
SWIDTH 500 0
DWIDTH 6 0
BBX 6 9 0 0
BITMAP
28
28
00
38
6c
cc
cc
d8
70
ENDCHAR
STARTCHAR odiaeresis
ENCODING 246
SWIDTH 500 0
DWIDTH 6 0
BBX 6 9 0 0
BITMAP
28
28
00
38
6c
cc
cc
d8
70
ENDCHAR
STARTCHAR division
ENCODING 247
SWIDTH 570 0
DWIDTH 7 0
BBX 5 5 1 1
BITMAP
20
00
f8
00
20
ENDCHAR
STARTCHAR rcaron
ENCODING 248
SWIDTH 389 0
DWIDTH 5 0
BBX 5 9 0 0
BITMAP
68
30
00
d8
68
60
c0
c0
c0
ENDCHAR
STARTCHAR uring
ENCODING 249
SWIDTH 556 0
DWIDTH 7 0
BBX 7 10 0 0
BITMAP
18
24
18
00
e6
6c
6c
cc
d8
6c
ENDCHAR
STARTCHAR uacute
ENCODING 250
SWIDTH 556 0
DWIDTH 7 0
BBX 7 9 0 0
BITMAP
0c
10
00
e6
6c
6c
cc
d8
6c
ENDCHAR
STARTCHAR udoubleacute
ENCODING 251
SWIDTH 556 0
DWIDTH 7 0
BBX 7 9 0 0
BITMAP
28
28
00
e6
6c
6c
cc
d8
6c
ENDCHAR
STARTCHAR udiaeresis
ENCODING 252
SWIDTH 556 0
DWIDTH 7 0
BBX 7 9 0 0
BITMAP
14
14
00
e6
6c
6c
cc
d8
6c
ENDCHAR
STARTCHAR yacute
ENCODING 253
SWIDTH 444 0
DWIDTH 6 0
BBX 7 12 -1 -3
BITMAP
06
08
00
76
32
34
34
1c
18
10
d0
e0
ENDCHAR
STARTCHAR tcedilla
ENCODING 254
SWIDTH 278 0
DWIDTH 3 0
BBX 4 10 0 -3
BITMAP
20
f0
60
40
c0
d0
60
20
b0
60
ENDCHAR
STARTCHAR abovedot
ENCODING 255
SWIDTH 333 0
DWIDTH 4 0
BBX 1 2 2 7
BITMAP
80
80
ENDCHAR
ENDFONT
